<svg width="40" height="59" viewBox="0 0 40 59" fill="none" xmlns="http://www.w3.org/2000/svg">
<mask id="mask0_1_11" style="mask-type:luminance" maskUnits="userSpaceOnUse" x="0" y="0" width="40" height="59">
<path d="M40 0H0V59H40V0Z" fill="white"/>
</mask>
<g mask="url(#mask0_1_11)">
<path d="M34.0186 11.8353C32.4327 11.8373 30.9121 12.538 29.791 13.7838C28.6697 15.0296 28.0389 16.7186 28.0374 18.4803V35.0318C28.0541 36.2163 27.8588 37.3924 27.4624 38.492C27.066 39.5917 26.4768 40.5925 25.7288 41.4368C24.9807 42.2811 24.0889 42.9515 23.1054 43.4091C22.1219 43.8667 21.0663 44.1023 20 44.1023C18.9337 44.1023 17.8781 43.8667 16.8946 43.4091C15.9111 42.9515 15.0193 42.2811 14.2713 41.4368C13.5233 40.5925 12.934 39.5917 12.5376 38.492C12.1413 37.3924 11.9458 36.2163 11.9626 35.0318V18.4803C11.9626 16.7181 11.3325 15.0281 10.2108 13.7821C9.08904 12.536 7.56766 11.836 5.98132 11.836C4.39498 11.836 2.8736 12.536 1.75188 13.7821C0.630168 15.0281 0 16.7181 0 18.4803V36.7843C-7.82739e-08 39.7018 0.517313 42.591 1.52241 45.2865C2.5275 47.982 4.0007 50.4311 5.85786 52.4943C7.71503 54.5572 9.91982 56.1938 12.3463 57.3104C14.7728 58.4267 17.3736 59.0014 20 59.0014C22.6264 59.0014 25.2272 58.4267 27.6537 57.3104C30.0803 56.1938 32.2849 54.5572 34.142 52.4943C35.9994 50.4311 37.4726 47.982 38.4775 45.2865C39.4826 42.591 40 39.7018 40 36.7843V18.4803C39.9982 16.7186 39.3677 15.0296 38.2463 13.7838C37.125 12.538 35.6044 11.8373 34.0186 11.8353ZM37.3832 36.7829C37.3832 41.9044 35.5516 46.8159 32.2917 50.4372C29.0318 54.0585 24.6103 56.0931 20 56.0931C15.3897 56.0931 10.9682 54.0585 7.70827 50.4372C4.4483 46.8159 2.61685 41.9044 2.61685 36.7829V18.4803C2.62451 17.4947 2.98233 16.5523 3.61248 15.8583C4.2426 15.1644 5.09399 14.775 5.98132 14.775C6.86864 14.775 7.72004 15.1644 8.35016 15.8583C8.98028 16.5523 9.33813 17.4947 9.34579 18.4803V35.0318C9.34579 38.1707 10.4683 41.1812 12.4663 43.4007C14.4644 45.6203 17.1743 46.8671 20 46.8671C22.8257 46.8671 25.5357 45.6203 27.5338 43.4007C29.5316 41.1812 30.6542 38.1707 30.6542 35.0318V18.4803C30.6542 17.4891 31.0086 16.5385 31.6396 15.8376C32.2707 15.1367 33.1263 14.7429 34.0186 14.7429C34.911 14.7429 35.7667 15.1367 36.3978 15.8376C37.0286 16.5385 37.3832 17.4891 37.3832 18.4803V36.7829Z" fill="url(#paint0_linear_1_11)"/>
<path d="M18.6916 15.2229V34.3848C18.6916 34.7704 18.8294 35.1401 19.0748 35.4127C19.3202 35.6853 19.653 35.8383 20 35.8383C20.347 35.8383 20.6798 35.6853 20.9252 35.4127C21.1706 35.1401 21.3084 34.7704 21.3084 34.3848V15.2229C22.9977 14.8614 24.5051 13.8133 25.5362 12.2835C26.5672 10.7536 27.048 8.85174 26.8844 6.94927C26.7209 5.04679 25.9251 3.28035 24.652 1.99479C23.379 0.70924 21.7204 -0.00308228 20 -0.00308228C18.2796 -0.00308228 16.6209 0.70924 15.348 1.99479C14.075 3.28035 13.279 5.04679 13.1155 6.94927C12.952 8.85174 13.4328 10.7536 14.4638 12.2835C15.4949 13.8133 17.0022 14.8614 18.6916 15.2229ZM20 2.90698C20.8503 2.90698 21.6815 3.18708 22.3885 3.71185C23.0955 4.23663 23.6465 4.98251 23.9719 5.85517C24.2973 6.72784 24.3824 7.6881 24.2165 8.61451C24.0506 9.54092 23.6411 10.3919 23.0398 11.0598C22.4386 11.7276 21.6725 12.1825 20.8386 12.3667C20.0046 12.551 19.1402 12.4563 18.3546 12.0948C17.569 11.7333 16.8976 11.1212 16.4252 10.3358C15.9529 9.55035 15.7008 8.627 15.7008 7.68243C15.7022 6.41631 16.1555 5.20246 16.9615 4.30721C17.7675 3.41195 18.8602 2.90837 20 2.90698Z" fill="url(#paint1_linear_1_11)"/>
</g>
<defs>
<linearGradient id="paint0_linear_1_11" x1="0" y1="35.4185" x2="40" y2="35.4185" gradientUnits="userSpaceOnUse">
<stop stop-color="#878484"/>
<stop offset="1" stop-color="#181616"/>
</linearGradient>
<linearGradient id="paint1_linear_1_11" x1="13.0842" y1="17.9176" x2="26.9157" y2="17.9176" gradientUnits="userSpaceOnUse">
<stop stop-color="#708A8D"/>
<stop offset="1" stop-color="#EE2A4A"/>
</linearGradient>
</defs>
</svg>
